<svg xmlns="http://www.w3.org/2000/svg" viewBox="0 0 925.9 314.5"><title>logo-full-horizontal-color</title><path d="M445.9,186.4c5.5-4.1,8.3-9.8,8.3-17.2s-2.6-13-7.9-16.7-14.6-7.6-27.9-11.5c-19.6-6-34.4-13.7-44.6-23.2s-15.1-22.6-15.1-39.3a47.8,47.8,0,0,1,7.7-26.1c5.1-8.3,12.7-14.9,22.6-20s21.8-7.6,35.3-7.6q45.9,0,67.3,36.4L463.1,82.3c-5.9-8.5-11.9-14.4-17.7-17.7s-13-5.1-21.3-5.1-13.8,1.9-18,5.7a18.6,18.6,0,0,0-6.2,14.2,17.9,17.9,0,0,0,3.3,11.1c2.1,2.9,5.5,5.4,10,7.6a172.4,172.4,0,0,0,19.8,7.6q20.7,6.8,33.9,14.4a58.9,58.9,0,0,1,20.9,19.2c5.1,7.8,7.6,17.5,7.6,29.1a56.2,56.2,0,0,1-7.8,28.6c-5.3,9-13.3,16.2-24.2,21.8s-24.2,8.5-40.2,8.5-31.7-3.5-44.1-10.4A66.7,66.7,0,0,1,351.3,189l28.5-21.2q15.8,24.8,42.4,24.7C432.5,192.5,440.4,190.5,445.9,186.4Zm130.4,63.4c12.7,0,22.4-3.7,29.3-11.1s10.3-19.6,10.3-36.4v-4.4h-.8q-14.7,22.3-42.3,22.3c-13.2,0-25-3.1-35.3-9.4a64.6,64.6,0,0,1-24.2-26q-8.7-16.7-8.7-38.1c0-14.2,2.9-26.8,8.6-37.9a63.9,63.9,0,0,1,23.9-26c10.2-6.3,21.7-9.4,34.6-9.4a52,52,0,0,1,24.8,6.1,45.4,45.4,0,0,1,18.1,17.2h.8V85.1l38.8-8.2V197.7c0,19.7-3.6,35.8-10.7,48.1s-16.5,21.4-28,26.8a88.5,88.5,0,0,1-38.1,8.1c-15,0-27.8-2.7-38.4-8.3s-18.7-12.9-24.3-22.3l27.1-18.5a47.2,47.2,0,0,0,14.8,13.6A40.7,40.7,0,0,0,576.3,249.8Zm39.1-103.1c0-11.6-3.4-21.1-10.2-28.4s-15.4-11-25.9-11-19.2,3.7-25.9,11-10.2,16.8-10.2,28.4,3.4,21.1,10.2,28.6,15.4,11.3,25.9,11.3,19.1-3.8,25.9-11.3S615.4,158.2,615.4,146.7Zm120.7,80.6a65.9,65.9,0,0,1-34.8-9.7,69.5,69.5,0,0,1-25.4-27.2c-6.4-11.8-9.5-25.2-9.5-40.2s3.1-28.6,9.2-40.2a68.5,68.5,0,0,1,25.2-27,67.6,67.6,0,0,1,35.3-9.6,58.9,58.9,0,0,1,26.5,5.8,48.1,48.1,0,0,1,19.1,17h.8V76.9l38.8,13.6V223.7H783.1v-22h-.8c-5.6,8.7-12.2,15.2-19.6,19.3S746.4,227.3,736.1,227.3Zm41.4-54.9a47.1,47.1,0,0,0,5-22.2c0-12.5-3.6-22.8-11-30.8s-16.6-12.1-27.8-12.1-20.5,4-27.8,12.1-11,18.3-11,30.8a48.4,48.4,0,0,0,5,22.2,38.5,38.5,0,0,0,13.9,15.4,38.9,38.9,0,0,0,39.9,0A37.5,37.5,0,0,0,777.5,172.4Zm56-125.9a21,21,0,0,1,6.3-15.3,21.3,21.3,0,0,1,30.4,0,21.3,21.3,0,0,1,6.2,15.3,21.5,21.5,0,0,1-6.2,15.4,21.5,21.5,0,0,1-30.4,0A21.2,21.2,0,0,1,833.5,46.5Zm2.2,30.4h38.6V223.7H835.7Z" transform="translate(-2 -0.5)"/><path d="M210.6,243.2c-2.2,11.1-4.1,25.3.9,36.3a15.4,15.4,0,0,0,7.4,8.1,25,25,0,0,0,2.5.9,7.8,7.8,0,0,0,.5-1.2c3.1-8.3,10-6.9,14.1-4.3,7.2,5,8,14.5,3,22.2s-10,9.4-17.4,9.8-15.3-1.8-22.4-5.5c-15.6-8.1-26.9-23.2-34.1-39.1a67.1,67.1,0,0,1-5.3-38.8c.1-.6.1-1.2.2-2.6l-2.2,1.9c-9.6,9.4-20.5,16.4-33.9,18.5s-24-.6-35.1-6.1a46.8,46.8,0,0,1-14.7-10.6,21.6,21.6,0,0,1-3.3-4.8c-1.7-3.8.2-7.3,4.2-8.2a9.8,9.8,0,0,1,3.4-.3c11,.9,19.9-3.9,28-10.6a1,1,0,0,0,.5-.6v-.7l-6.3,1.5c-12.9,2.7-25,0-36.7-5.7-3.5-1.7-6.8-3.8-10.5-5.2a17.1,17.1,0,0,0-7.1-.8,6.7,6.7,0,0,0-6.7,6.2c-.1,3.2,2.8,6.6,6.3,7.1a33.2,33.2,0,0,0,6.3-.1,11.7,11.7,0,0,1,8.5,2.2c2.7,2.1,3.4,4.4,1.6,7.3a16.4,16.4,0,0,1-4.8,5c-4.5,2-18.8,3.3-28.1.4s-18.1-9.7-22-19.9c-4.9-12.7.1-27.1,11.7-34.7,6.8-4.5,15.5-4.8,23.5-6l2-.6L42.3,163c-17.4-9.1-30.5-22.2-37.4-40.8C0,108.9,1.1,95.8,10,84.3S37.5,69.4,49.5,78c5.2,3.6,8.5,8.5,8.6,15a7.2,7.2,0,0,1-4.3,6.9c-2.8,1.3-5.3.3-7.5-1.5s-2.7-2.9-4.8-1.9-2.7,3-2.9,5.1c-1.2,7.8,2.5,13.2,8.7,17.4,15.9,10.7,37.7,7.4,49-7.2,4.6-5.9,5.4-12.4,4.6-19.4C99.5,81,106,63,112,52c12-16,14.4-20.5,23-27,12-9,22-15,36.5-20.7S209-2,232.5,9.4C249,18,263.3,27.7,276,41c15,15.7,26.7,31.6,30.5,53.1,3.3,18.6,1.5,36.7-6.1,54.1-6.9,15.8-19.3,26.3-34.4,33.9a14,14,0,0,1-1.7.9c-9.2,3.1-12.5,10.5-14,19.2-2.8,16.9,9.3,35.8,25.9,40.3,6.5,1.8,13.2-.2,16.8-4.9s1.7-5.5-2.2-6.6-5.8-3.3-6.1-6.2,1.5-5.9,4.7-7.6c6.7-3.6,15.9-2.2,22.6,3.4,13.5,11.3,15,29.5,3.8,43.3S292.3,281,277,281.2c-19.3.2-36.4-6.1-51.2-18.5a54.1,54.1,0,0,1-13.5-17.5,21.2,21.2,0,0,0-1.1-2.1Z" transform="translate(-2 -0.5)" fill="#42cce3"/><path d="M285.1,94.2c-.5,5.5-1,11.8-1.7,18-.5,4-3,6.3-5.7,5.7s-4.4-3.6-4-7.9,1.1-11.4,1.6-17.1c.3-3.9,2.4-6.3,5.2-6.1S285.1,89.7,285.1,94.2Z" transform="translate(-2 -0.5)"/><path d="M222.4,105.7c-.5,4.3-1,10.4-1.9,16.5-.5,3.6-2.6,5.2-5.4,4.8s-4.3-2.7-4.1-6.3c.4-6.4,1-12.8,1.8-19.1.4-3.6,3-6.1,5.4-5.6S222.5,98.9,222.4,105.7Z" transform="translate(-2 -0.5)"/><path d="M900,216.6a49.2,49.2,0,0,0,9.4,1,43.2,43.2,0,0,0,9.5-1,38.4,38.4,0,0,0,9-3.1V218a45.5,45.5,0,0,1-8.8,3.7,36.6,36.6,0,0,1-9.3,1.3,27.4,27.4,0,0,1-4.8-.4,42.1,42.1,0,0,1-4.9-.9,27,27,0,0,1-4.8-1.6,27.4,27.4,0,0,1-4.2-2.1v-4.6A35.1,35.1,0,0,0,900,216.6Z" transform="translate(-2 -0.5)"/><path d="M915.4,207.5a3.2,3.2,0,0,0,1.7-2.2,4.1,4.1,0,0,0,.2-1.6,4.9,4.9,0,0,0-.1-1.2,3.7,3.7,0,0,0-.5-1.1,3.2,3.2,0,0,0-.8-.9,2.1,2.1,0,0,0-1.2-.3,2.1,2.1,0,0,0-2,1.6c-.4,1.1-.8,2.6-1.3,4.5l-.6,2.3a12.4,12.4,0,0,1-1,2,7,7,0,0,1-1.6,1.4,4.3,4.3,0,0,1-2.3.5,6.9,6.9,0,0,1-3.4-.7,6.4,6.4,0,0,1-2-2,7.9,7.9,0,0,1-1-2.7,16.2,16.2,0,0,1,0-6.2,8.1,8.1,0,0,1,1.1-2.7,6.1,6.1,0,0,1,2-1.9,7.5,7.5,0,0,1,3.2-1v5.2a2.3,2.3,0,0,0-2.2,1.1,5.1,5.1,0,0,0-.6,2.5,3.4,3.4,0,0,0,.1,1,3,3,0,0,0,.2,1,2,2,0,0,0,.6.7,1.7,1.7,0,0,0,1,.3,1.5,1.5,0,0,0,1.3-.5,3.7,3.7,0,0,0,.8-1.4,8.7,8.7,0,0,0,.5-1.9c.2-.8.3-1.5.5-2.3s.5-1.5.7-2.3a7.8,7.8,0,0,1,1.1-2,7.3,7.3,0,0,1,1.6-1.4,6.2,6.2,0,0,1,2.5-.5,6.8,6.8,0,0,1,3.4.8,6.4,6.4,0,0,1,2.3,2,12.6,12.6,0,0,1,1.2,2.9,18.4,18.4,0,0,1,.3,3.3,12.4,12.4,0,0,1-.4,3.3,6.9,6.9,0,0,1-1.2,2.9,6.3,6.3,0,0,1-2.2,2.1,8.5,8.5,0,0,1-3.5.9v-5.1A3.8,3.8,0,0,0,915.4,207.5Z" transform="translate(-2 -0.5)"/><path d="M891.8,186.2h15.4l-7.5-6.8V173l7.7,7.4,13.2-8.2v6.5l-9.3,5.4,2.1,2.1h7.2v5.3H891.8Z" transform="translate(-2 -0.5)"/><path d="M926.8,163.4a7.6,7.6,0,0,1,1.1,4.3,9.7,9.7,0,0,1-.1,1.7c0,.5-.1,1.1-.1,1.6H923c0-.5.1-1,.1-1.5a9.2,9.2,0,0,0,.1-1.6,2.2,2.2,0,0,0-.9-1.6,3.4,3.4,0,0,0-1.7-.5l-1.3.2-19.6,6.9v-5.8l14.3-4.4h0l-14.3-4.3v-5.5l23.5,8.2A6.6,6.6,0,0,1,926.8,163.4Z" transform="translate(-2 -0.5)"/><path d="M919,150.5a40.8,40.8,0,0,0-9.3-1,43.2,43.2,0,0,0-9.5,1,40.7,40.7,0,0,0-9.1,3.1v-4.5a40,40,0,0,1,8.8-3.7,37.4,37.4,0,0,1,9.4-1.3l4.7.3a29.5,29.5,0,0,1,5,1,36.8,36.8,0,0,1,4.7,1.5,41.3,41.3,0,0,1,4.2,2.2v4.5A40.9,40.9,0,0,0,919,150.5Z" transform="translate(-2 -0.5)"/></svg>